<svg id="Layer_1" data-name="Layer 1" xmlns="http://www.w3.org/2000/svg" width="672.88" height="725.71" viewBox="0 0 672.88 725.71">
  <defs>
    <style>
      .cls-1 {
        fill: #474951;
      }

      .cls-2 {
        fill: none;
      }

      .cls-3 {
        fill: #f2f2f2;
      }

      .cls-4 {
        fill: #eaa9bf;
      }

      .cls-5 {
        fill: #beddf2;
      }

      .cls-6 {
        fill: #69c0db;
      }
    </style>
  </defs>
  <title>Artboard 4 copy 3</title>
  <g>
    <circle class="cls-1" cx="341.17" cy="265.6" r="252.14"/>
    <path class="cls-2" d="M350.32,183.59v117a283.5,283.5,0,0,1-3.17,44.74l82.43-82.44Z"/>
    <path class="cls-3" d="M429.58,262.86,347.15,345.3c-3.66,22.76-10.51,40-20.71,51.91L460.79,262.86,350.32,152.39v31.2Z"/>
    <path class="cls-1" d="M262.48,123.38a66.71,66.71,0,0,0-47.17,113.88l25.6,25.6-25.6,25.6a66.71,66.71,0,0,0,94.34,94.34l.48-.48c12-14.59,18.13-42.05,18.13-81.76v-139l-18.61-18.61A66.27,66.27,0,0,0,262.48,123.38Z"/>
    <path class="cls-4" d="M328.26,101.58v28.75l-3-3A88.77,88.77,0,1,0,199.71,252.86l10,10-10,10A88.77,88.77,0,1,0,325.25,398.4l1.19-1.19c10.2-11.95,17.05-29.15,20.71-51.91a283.5,283.5,0,0,0,3.17-44.74v-199Zm0,199c0,39.71-6.1,67.17-18.13,81.76l-.48.48a66.71,66.71,0,0,1-94.34-94.34l25.6-25.6-25.6-25.6a66.71,66.71,0,1,1,94.34-94.34l18.61,18.61Z"/>
    <rect class="cls-5" x="394.7" y="101.58" width="22.06" height="307.82"/>
    <rect class="cls-6" x="460.89" y="101.58" width="22.06" height="321.74"/>
  </g>
  <g>
    <path class="cls-1" d="M74,579.06H104.6a5.6,5.6,0,0,1,4,1.51,5.1,5.1,0,0,1,1.59,3.88,4.7,4.7,0,0,1-1.59,3.69,5.79,5.79,0,0,1-4,1.41H79.06l.82-1.55v17.79l-.73-.73h21.34a5.52,5.52,0,0,1,4,1.51,5.05,5.05,0,0,1,1.6,3.87,4.69,4.69,0,0,1-1.6,3.7,5.76,5.76,0,0,1-4,1.41H79.42l.46-.73v18.43l-.73-.82H104.6a5.38,5.38,0,0,1,4,1.6,5.06,5.06,0,0,1,1.59,3.69,4.85,4.85,0,0,1-1.59,3.74,5.69,5.69,0,0,1-4,1.46H74a5.45,5.45,0,0,1-5.56-5.56V584.63A5.45,5.45,0,0,1,74,579.06Z"/>
    <path class="cls-1" d="M127.33,642.92a5.21,5.21,0,0,1-3.92-1.6,5.42,5.42,0,0,1-1.55-4V599.68a5.46,5.46,0,0,1,1.55-4,5.6,5.6,0,0,1,7.84,0,5.46,5.46,0,0,1,1.55,4v8.57l-.63-6.11a13.77,13.77,0,0,1,2.6-3.87,15.15,15.15,0,0,1,3.6-2.83,16.26,16.26,0,0,1,4.29-1.69,19.74,19.74,0,0,1,4.56-.55,7,7,0,0,1,4.6,1.55,4.62,4.62,0,0,1,1.87,3.65c0,2-.51,3.45-1.55,4.34a5.09,5.09,0,0,1-3.37,1.32,7.48,7.48,0,0,1-3.15-.64,7.71,7.71,0,0,0-3.24-.64,7.93,7.93,0,0,0-3.33.78A9.13,9.13,0,0,0,136,606a12.91,12.91,0,0,0-2.28,4.06,16.93,16.93,0,0,0-.87,5.71v21.62a5.42,5.42,0,0,1-1.55,4A5.21,5.21,0,0,1,127.33,642.92Z"/>
    <path class="cls-1" d="M174.54,637.36a5.46,5.46,0,0,1-1.55,4,5.61,5.61,0,0,1-7.85,0,5.46,5.46,0,0,1-1.55-4V599.68a5.5,5.5,0,0,1,1.55-4,5.61,5.61,0,0,1,7.85,0,5.5,5.5,0,0,1,1.55,4Z"/>
    <path class="cls-1" d="M232.74,637.36a5.14,5.14,0,0,1-1.74,4,5.71,5.71,0,0,1-4,1.6,5.39,5.39,0,0,1-5.66-5.56V584.63a5.33,5.33,0,0,1,1.64-4,5.81,5.81,0,0,1,4.2-1.6,5.52,5.52,0,0,1,3.88,1.6,5.26,5.26,0,0,1,1.69,4Z"/>
    <path class="cls-1" d="M246.16,635.35a5.11,5.11,0,0,1-.82-3.29,4.4,4.4,0,0,1,2.37-3.46,5,5,0,0,1,3.1-.78,5.21,5.21,0,0,1,3.2,1.69,21.53,21.53,0,0,0,5.56,4.1,16.17,16.17,0,0,0,7.3,1.46,22.88,22.88,0,0,0,3-.41,5.76,5.76,0,0,0,2.87-1.46,4.57,4.57,0,0,0,1.23-3.51,4,4,0,0,0-1.36-3.19,11.72,11.72,0,0,0-3.61-2c-1.49-.55-3.14-1.06-5-1.55s-3.82-1.15-5.79-1.82a24.32,24.32,0,0,1-5.43-2.6,12.55,12.55,0,0,1-4-4.24,13,13,0,0,1-1.55-6.66,12.06,12.06,0,0,1,2.55-7.76,16.67,16.67,0,0,1,6.62-4.92A21.36,21.36,0,0,1,265,593.2a27.23,27.23,0,0,1,5.93.69,22.64,22.64,0,0,1,5.93,2.19,14.52,14.52,0,0,1,4.75,4,6.51,6.51,0,0,1,1.18,3.28A3.92,3.92,0,0,1,281,606.8a4.4,4.4,0,0,1-3.19,1,4.8,4.8,0,0,1-3-1.23,10.77,10.77,0,0,0-4.16-3.19,14.23,14.23,0,0,0-6-1.19,15.52,15.52,0,0,0-3,.32,5.93,5.93,0,0,0-2.78,1.37,5,5,0,0,0,.19,6.66,10.38,10.38,0,0,0,3.69,2c1.55.51,3.21,1,5,1.5s3.68,1.07,5.57,1.74a22.12,22.12,0,0,1,5.2,2.64,12.61,12.61,0,0,1,3.83,4.24,13.46,13.46,0,0,1,1.46,6.62,12,12,0,0,1-2.74,7.93,17.28,17.28,0,0,1-6.84,5,21.83,21.83,0,0,1-8.39,1.69A32.56,32.56,0,0,1,255.1,642,18.58,18.58,0,0,1,246.16,635.35Z"/>
    <path class="cls-1" d="M321.87,593.2q6.57,0,10,2.83a14.37,14.37,0,0,1,4.69,7.53A39.39,39.39,0,0,1,337.83,614v23.36a5.46,5.46,0,0,1-1.55,4,5.6,5.6,0,0,1-7.84,0,5.43,5.43,0,0,1-1.56-4V614a19.09,19.09,0,0,0-.72-5.43,7.42,7.42,0,0,0-2.65-3.87,8.9,8.9,0,0,0-5.47-1.46,11.43,11.43,0,0,0-5.93,1.46,9.36,9.36,0,0,0-3.7,3.87,11.85,11.85,0,0,0-1.23,5.43v23.36a5.46,5.46,0,0,1-1.55,4,5.6,5.6,0,0,1-7.84,0,5.43,5.43,0,0,1-1.56-4V581a5.47,5.47,0,0,1,1.56-4,5.6,5.6,0,0,1,7.84,0,5.5,5.5,0,0,1,1.55,4V603.6l-1.37-.27a21.14,21.14,0,0,1,2.28-3.33,19.68,19.68,0,0,1,3.56-3.33,19.25,19.25,0,0,1,4.65-2.51A15.7,15.7,0,0,1,321.87,593.2Z"/>
    <path class="cls-1" d="M363.1,637.36a5.46,5.46,0,0,1-1.55,4,5.61,5.61,0,0,1-7.85,0,5.46,5.46,0,0,1-1.55-4V599.68a5.5,5.5,0,0,1,1.55-4,5.61,5.61,0,0,1,7.85,0,5.5,5.5,0,0,1,1.55,4Z"/>
    <path class="cls-1" d="M383.51,642.92a5.21,5.21,0,0,1-3.92-1.6,5.46,5.46,0,0,1-1.55-4V581a5.5,5.5,0,0,1,1.55-4,5.61,5.61,0,0,1,7.85,0,5.5,5.5,0,0,1,1.55,4v56.38a5.46,5.46,0,0,1-1.55,4A5.25,5.25,0,0,1,383.51,642.92Zm29-48.81a4.74,4.74,0,0,1,3.65,1.74,5.16,5.16,0,0,1,1.55,3.37,5.49,5.49,0,0,1-2.19,4.11L388.07,628.6,387.62,616l20.89-20.16A5.48,5.48,0,0,1,412.52,594.11Zm1.37,48.72a5.18,5.18,0,0,1-4-1.83L393,623.12l8.3-7.66,16.42,17.88a5.81,5.81,0,0,1,1.73,4.11,4.75,4.75,0,0,1-1.86,3.87A5.9,5.9,0,0,1,413.89,642.83Z"/>
    <path class="cls-1" d="M469.22,593.2a5.34,5.34,0,0,1,3.93,1.55,5.47,5.47,0,0,1,1.55,4v38.59a5.46,5.46,0,0,1-1.55,4,5.61,5.61,0,0,1-7.85,0,5.46,5.46,0,0,1-1.55-4v-4.48l2,.83a5.16,5.16,0,0,1-1.28,2.87,17.57,17.57,0,0,1-3.46,3.33,21.58,21.58,0,0,1-5.16,2.78,17.78,17.78,0,0,1-6.43,1.14,20.82,20.82,0,0,1-11.4-3.24,22.8,22.8,0,0,1-8.08-8.94,30.62,30.62,0,0,1,0-26.27,23.05,23.05,0,0,1,8-8.94,20.06,20.06,0,0,1,11.12-3.24,21.09,21.09,0,0,1,7.21,1.19,21.37,21.37,0,0,1,5.7,3,17.47,17.47,0,0,1,3.74,3.69,5.93,5.93,0,0,1,1.33,3.15l-3.29,1.19v-6.66a5.48,5.48,0,0,1,1.55-4A5.26,5.26,0,0,1,469.22,593.2ZM450.8,633.8a12.34,12.34,0,0,0,7-2,13.58,13.58,0,0,0,4.7-5.47,18.84,18.84,0,0,0,0-15.6,13.61,13.61,0,0,0-4.7-5.48,12.41,12.41,0,0,0-7-2,12.28,12.28,0,0,0-6.94,2,13.59,13.59,0,0,0-4.69,5.48,18.84,18.84,0,0,0,0,15.6,13.56,13.56,0,0,0,4.69,5.47A12.21,12.21,0,0,0,450.8,633.8Z"/>
    <path class="cls-1" d="M544.64,594.11a4.93,4.93,0,0,1,3.64,1.6,5.57,5.57,0,0,1,1.55,4.06,6.43,6.43,0,0,1-.09,1.14,4.84,4.84,0,0,1-.27,1l-14,37.58a5,5,0,0,1-2.28,2.78,5.17,5.17,0,0,1-3.46.69,5.36,5.36,0,0,1-4.66-3.47l-9-26,2.37.1L510,639.45a5.34,5.34,0,0,1-4.65,3.47,5.15,5.15,0,0,1-3.42-.69,5,5,0,0,1-2.33-2.78l-14-37.58a6.18,6.18,0,0,1-.36-2.1,5.92,5.92,0,0,1,1.46-3.92,5,5,0,0,1,4-1.74,5.87,5.87,0,0,1,3.1.83,4.34,4.34,0,0,1,1.92,2.64l11,29.92-2.28-.18,8.3-22.53a5.1,5.1,0,0,1,5-3.38,4.68,4.68,0,0,1,3,.87,6,6,0,0,1,1.69,2.51l8.3,22.53-2.74.37,11.22-30.11Q540.44,594.12,544.64,594.11Z"/>
    <path class="cls-1" d="M599.38,593.2a5.34,5.34,0,0,1,3.93,1.55,5.47,5.47,0,0,1,1.55,4v38.59a5.46,5.46,0,0,1-1.55,4,5.61,5.61,0,0,1-7.85,0,5.46,5.46,0,0,1-1.55-4v-4.48l2,.83a5.16,5.16,0,0,1-1.28,2.87,17.57,17.57,0,0,1-3.46,3.33,21.58,21.58,0,0,1-5.16,2.78,17.78,17.78,0,0,1-6.43,1.14,20.82,20.82,0,0,1-11.4-3.24,22.8,22.8,0,0,1-8.08-8.94,30.62,30.62,0,0,1,0-26.27,23.05,23.05,0,0,1,8-8.94,20.07,20.07,0,0,1,11.13-3.24,21.08,21.08,0,0,1,7.2,1.19,21.37,21.37,0,0,1,5.7,3,17.47,17.47,0,0,1,3.74,3.69,5.93,5.93,0,0,1,1.33,3.15l-3.29,1.19v-6.66a5.48,5.48,0,0,1,1.55-4A5.26,5.26,0,0,1,599.38,593.2ZM581,633.8a12.34,12.34,0,0,0,7-2,13.58,13.58,0,0,0,4.7-5.47,18.84,18.84,0,0,0,0-15.6,13.61,13.61,0,0,0-4.7-5.48,12.41,12.41,0,0,0-7-2,12.23,12.23,0,0,0-6.93,2,13.53,13.53,0,0,0-4.7,5.48,18.84,18.84,0,0,0,0,15.6,13.5,13.5,0,0,0,4.7,5.47A12.16,12.16,0,0,0,581,633.8Z"/>
    <circle class="cls-1" cx="357.62" cy="582.76" r="5.75"/>
    <circle class="cls-1" cx="169.06" cy="582.76" r="5.75"/>
  </g>
  <g>
    <path class="cls-1" d="M99.77,684.54a1.52,1.52,0,0,1,1,.39,1.32,1.32,0,0,1,.46,1.06,1.47,1.47,0,0,1,0,.33,1.34,1.34,0,0,1-.1.29l-7.41,22.15a1.58,1.58,0,0,1-.61.7,1.25,1.25,0,0,1-.84.22,1.49,1.49,0,0,1-1.3-.92l-6.79-16L85,693l-6,15.79a1.42,1.42,0,0,1-1.3.92,1.35,1.35,0,0,1-.87-.22,1.29,1.29,0,0,1-.57-.7l-7.61-22.15a1.49,1.49,0,0,1-.14-.62,1.43,1.43,0,0,1,.4-1,1.5,1.5,0,0,1,1.09-.41,1.39,1.39,0,0,1,.79.24,1.28,1.28,0,0,1,.51.73L78.11,706l-.92,0,6.21-15.65a1.36,1.36,0,0,1,1.35-.91,1.39,1.39,0,0,1,.82.24,1.63,1.63,0,0,1,.53.67L92.69,706l-1.06.05,6.79-20.56A1.29,1.29,0,0,1,99.77,684.54Z"/>
    <path class="cls-1" d="M118.86,710.16a13.21,13.21,0,0,1-6.55-1.59,11.37,11.37,0,0,1-4.43-4.43,13.47,13.47,0,0,1-1.58-6.64,14.11,14.11,0,0,1,1.61-7,11.76,11.76,0,0,1,4.19-4.45,10.4,10.4,0,0,1,5.46-1.57,11.64,11.64,0,0,1,4.12.75,10.39,10.39,0,0,1,3.54,2.22,11.33,11.33,0,0,1,2.5,3.58,12.31,12.31,0,0,1,1,4.91,1.3,1.3,0,0,1-.43,1,1.45,1.45,0,0,1-1,.41H108l-.58-2.6h19l-.62.58v-1a7.39,7.39,0,0,0-1.49-3.86,8.18,8.18,0,0,0-3-2.4,8.6,8.6,0,0,0-3.69-.82,8.19,8.19,0,0,0-3,.58,7.67,7.67,0,0,0-2.74,1.8,9.21,9.21,0,0,0-2,3.13,11.84,11.84,0,0,0-.77,4.5,11.33,11.33,0,0,0,1.15,5.15,8.88,8.88,0,0,0,3.33,3.67,9.79,9.79,0,0,0,5.24,1.34,8.85,8.85,0,0,0,3-.48,8.59,8.59,0,0,0,2.38-1.27,9.72,9.72,0,0,0,1.71-1.67,1.63,1.63,0,0,1,1-.43,1.15,1.15,0,0,1,.89.39,1.21,1.21,0,0,1,.36.86,1.29,1.29,0,0,1-.48,1,12.84,12.84,0,0,1-3.75,3A10.31,10.31,0,0,1,118.86,710.16Z"/>
    <path class="cls-1" d="M148.36,684.49a10.44,10.44,0,0,1,5.8,1.64,11.56,11.56,0,0,1,4,4.5,14.07,14.07,0,0,1,1.49,6.62,14.31,14.31,0,0,1-1.49,6.6,11.75,11.75,0,0,1-4,4.62,10.14,10.14,0,0,1-5.73,1.69,9.78,9.78,0,0,1-3.21-.53,10.91,10.91,0,0,1-2.76-1.42,10.74,10.74,0,0,1-2.22-2.09,11.13,11.13,0,0,1-1.54-2.61l.87-.62v5.44a1.43,1.43,0,0,1-.41,1,1.54,1.54,0,0,1-2.07,0,1.43,1.43,0,0,1-.41-1V675.54a1.5,1.5,0,0,1,.38-1,1.39,1.39,0,0,1,1.06-.4,1.41,1.41,0,0,1,1,.4,1.43,1.43,0,0,1,.41,1v16.13l-.68-.39a9.17,9.17,0,0,1,1.42-2.72,10.63,10.63,0,0,1,2.2-2.14,10,10,0,0,1,2.74-1.42A9.6,9.6,0,0,1,148.36,684.49Zm-.24,2.7a8.14,8.14,0,0,0-4.58,1.3,9,9,0,0,0-3.1,3.56,11.43,11.43,0,0,0-1.13,5.2,11.77,11.77,0,0,0,1.13,5.23,9,9,0,0,0,3.1,3.66,8.07,8.07,0,0,0,4.58,1.32,7.78,7.78,0,0,0,4.5-1.34,9.5,9.5,0,0,0,3.11-3.69,11.52,11.52,0,0,0,1.15-5.18,11.31,11.31,0,0,0-1.15-5.2,9.3,9.3,0,0,0-3.11-3.56A7.9,7.9,0,0,0,148.12,687.19Z"/>
    <path class="cls-1" d="M192.9,710.16a11.63,11.63,0,0,1-10.19-5.68,10.36,10.36,0,0,1-.62-9.39,10.12,10.12,0,0,1,2.55-3.54,12.34,12.34,0,0,1,4.36-2.48l2.07,2.07c-2.51.58-4.27,1.57-5.3,3a7.76,7.76,0,0,0-1.54,4.67,8.87,8.87,0,0,0,1,4.12,8.26,8.26,0,0,0,3,3.21,9.26,9.26,0,0,0,4.95,1.25,12.7,12.7,0,0,0,5.37-1,11.36,11.36,0,0,0,3.78-2.74,13.88,13.88,0,0,0,2.46-3.85,21.93,21.93,0,0,0,1.35-4.36,1.26,1.26,0,0,1,.41-.75,1.51,1.51,0,0,1,2,.22,1.56,1.56,0,0,1,.29,1.2,20.14,20.14,0,0,1-1.59,5.11,16.8,16.8,0,0,1-3.13,4.55,14.78,14.78,0,0,1-4.77,3.25A16.2,16.2,0,0,1,192.9,710.16Zm17.09-.63a1.43,1.43,0,0,1-.46-.07,3,3,0,0,1-.41-.17l-5.65-4.45q-2.73-2.15-5.4-4.65c-1.78-1.67-3.65-3.59-5.6-5.78q-1.69-1.92-3-3.78a21.08,21.08,0,0,1-2.17-3.65,8.73,8.73,0,0,1-.81-3.59,7.59,7.59,0,0,1,1.1-4,7.7,7.7,0,0,1,3.13-2.84,10.48,10.48,0,0,1,4.82-1,11.35,11.35,0,0,1,5.73,1.3,7.75,7.75,0,0,1,3.18,3.08,1.3,1.3,0,0,1,.14.32,1.79,1.79,0,0,1,.1.6,1.19,1.19,0,0,1-.36.82,1.33,1.33,0,0,1-1,.38,1.39,1.39,0,0,1-.65-.14,1.1,1.1,0,0,1-.41-.39,7.81,7.81,0,0,0-2.53-2.38,8.11,8.11,0,0,0-4.21-.94,6.25,6.25,0,0,0-4.48,1.47,5,5,0,0,0-1.54,3.78,7.11,7.11,0,0,0,.82,3.15,20.61,20.61,0,0,0,2.09,3.35q1.28,1.68,2.67,3.27,1.94,2.18,4.07,4.21t4.24,3.83q2.1,1.78,4,3.23l3.33,2.55a1.34,1.34,0,0,1,.62,1.2,1.53,1.53,0,0,1-.34.87A1.09,1.09,0,0,1,210,709.53Z"/>
    <path class="cls-1" d="M244.32,684.49a10.33,10.33,0,0,1,4,.75,11.47,11.47,0,0,1,3.2,1.93,9.89,9.89,0,0,1,2.15,2.5,5.07,5.07,0,0,1,.76,2.53l-.76-1.16v-4.47a1.47,1.47,0,0,1,.4-1.06,1.38,1.38,0,0,1,1-.44,1.34,1.34,0,0,1,1,.44,1.44,1.44,0,0,1,.41,1.06v20.84a12.49,12.49,0,0,1-1.58,6.5,10.37,10.37,0,0,1-4.31,4,13.52,13.52,0,0,1-6.19,1.38,15.44,15.44,0,0,1-3.54-.44,13.56,13.56,0,0,1-3.18-1.1c-.88-.45-1.39-.92-1.52-1.4a1.26,1.26,0,0,1-.31-.84.91.91,0,0,1,.41-.7.89.89,0,0,1,1-.07c.37.17.9.41,1.61.7l1.28.43a14.42,14.42,0,0,0,2,.5,12,12,0,0,0,2.34.22,8.44,8.44,0,0,0,9.15-9V703l.52.14a8,8,0,0,1-1.44,3,9.62,9.62,0,0,1-2.36,2.19,10.44,10.44,0,0,1-2.89,1.35,10.6,10.6,0,0,1-3.08.46,11,11,0,0,1-6-1.69,11.9,11.9,0,0,1-4.21-4.57,14.85,14.85,0,0,1,0-13.17,11.79,11.79,0,0,1,4.19-4.57A11,11,0,0,1,244.32,684.49Zm.29,2.7a8.52,8.52,0,0,0-4.69,1.33,9.09,9.09,0,0,0-3.28,3.61,11.06,11.06,0,0,0-1.18,5.17,11.21,11.21,0,0,0,1.18,5.2,9.11,9.11,0,0,0,3.28,3.64,9.1,9.1,0,0,0,9.41,0,9.2,9.2,0,0,0,3.27-3.58,12.1,12.1,0,0,0,0-10.55,9,9,0,0,0-3.27-3.56A8.81,8.81,0,0,0,244.61,687.19Z"/>
    <path class="cls-1" d="M267.36,709.68a1.35,1.35,0,0,1-1.06-.44,1.43,1.43,0,0,1-.38-1V686.66a1.41,1.41,0,0,1,.41-1,1.34,1.34,0,0,1,1-.43,1.37,1.37,0,0,1,1,.43,1.45,1.45,0,0,1,.41,1v7.22l-.73.15a11.09,11.09,0,0,1,.85-3.35,11.5,11.5,0,0,1,1.9-3.06,9.7,9.7,0,0,1,2.86-2.26,7.93,7.93,0,0,1,3.74-.87,4,4,0,0,1,1.68.37,1.21,1.21,0,0,1,.82,1.18,1.46,1.46,0,0,1-.39,1.1,1.23,1.23,0,0,1-.91.39,2.22,2.22,0,0,1-.94-.24,3.12,3.12,0,0,0-1.32-.24,5.27,5.27,0,0,0-2.7.79,9.47,9.47,0,0,0-2.46,2.14,11.3,11.3,0,0,0-1.75,3,9,9,0,0,0-.65,3.35v11.89a1.36,1.36,0,0,1-.44,1A1.38,1.38,0,0,1,267.36,709.68Z"/>
    <path class="cls-1" d="M305.53,685.07a1.36,1.36,0,0,1,1,.44,1.44,1.44,0,0,1,.41,1.06v21.66a1.35,1.35,0,0,1-.43,1,1.4,1.4,0,0,1-1,.44,1.35,1.35,0,0,1-1.06-.44,1.44,1.44,0,0,1-.39-1V702.5l.82-.38a5.85,5.85,0,0,1-.74,2.74,9.91,9.91,0,0,1-2.05,2.6,10.46,10.46,0,0,1-3.06,1.95,9.66,9.66,0,0,1-3.83.75,10.32,10.32,0,0,1-5.8-1.69,11.52,11.52,0,0,1-4-4.62,14.55,14.55,0,0,1-1.47-6.6,14.2,14.2,0,0,1,1.49-6.62,11.55,11.55,0,0,1,4.05-4.5,10.75,10.75,0,0,1,9.6-.91,10.11,10.11,0,0,1,3.16,2,9.52,9.52,0,0,1,2.11,2.87,7.56,7.56,0,0,1,.77,3.34l-1-.72v-6.11a1.51,1.51,0,0,1,.39-1.06A1.35,1.35,0,0,1,305.53,685.07Zm-10,22.39a8,8,0,0,0,4.53-1.32,8.93,8.93,0,0,0,3.1-3.66,11.77,11.77,0,0,0,1.14-5.23,11.18,11.18,0,0,0-1.14-5.1,9.25,9.25,0,0,0-3.1-3.61,7.85,7.85,0,0,0-4.53-1.35,8,8,0,0,0-4.5,1.3,9,9,0,0,0-3.13,3.56,11.56,11.56,0,0,0-1.13,5.2,12,12,0,0,0,1.11,5.23,8.78,8.78,0,0,0,3.1,3.66A8.07,8.07,0,0,0,295.51,707.46Z"/>
    <path class="cls-1" d="M328.09,684.88a10.61,10.61,0,0,1,5.8,1.61,11.65,11.65,0,0,1,4,4.43,14.88,14.88,0,0,1,0,13,11.63,11.63,0,0,1-4.05,4.48,10.39,10.39,0,0,1-5.73,1.63,10,10,0,0,1-3.2-.5,11.36,11.36,0,0,1-2.77-1.37,10.75,10.75,0,0,1-2.21-2,10.26,10.26,0,0,1-1.54-2.58l.86-.62v15a1.4,1.4,0,0,1-.4,1,1.38,1.38,0,0,1-1,.44,1.34,1.34,0,0,1-1-.44,1.37,1.37,0,0,1-.41-1V686.47a1.52,1.52,0,0,1,.38-1.06,1.34,1.34,0,0,1,1.06-.43,1.37,1.37,0,0,1,1,.43,1.49,1.49,0,0,1,.4,1.06v5.2l-.67-.39a8.36,8.36,0,0,1,1.42-2.67,10,10,0,0,1,2.19-2,9.88,9.88,0,0,1,2.75-1.28A11.49,11.49,0,0,1,328.09,684.88Zm-.24,2.7a8.25,8.25,0,0,0-4.58,1.27,8.83,8.83,0,0,0-3.1,3.47A10.84,10.84,0,0,0,319,697.4a11.16,11.16,0,0,0,1.14,5.1,8.7,8.7,0,0,0,3.1,3.54,8.26,8.26,0,0,0,4.58,1.28,8,8,0,0,0,4.5-1.28,9,9,0,0,0,3.1-3.54,11,11,0,0,0,1.16-5.1,10.81,10.81,0,0,0-1.16-5.06,9.14,9.14,0,0,0-3.1-3.49A8,8,0,0,0,327.85,687.58Z"/>
    <path class="cls-1" d="M358.54,684.88a8.47,8.47,0,0,1,4.92,1.3,7.61,7.61,0,0,1,2.76,3.52,12.89,12.89,0,0,1,.9,4.91v13.62a1.36,1.36,0,0,1-.44,1,1.38,1.38,0,0,1-1,.44,1.35,1.35,0,0,1-1.06-.44,1.43,1.43,0,0,1-.38-1V694.61a9.83,9.83,0,0,0-.61-3.57,5.22,5.22,0,0,0-1.95-2.52,6.15,6.15,0,0,0-3.61-.94,8.09,8.09,0,0,0-3.82.94,7.86,7.86,0,0,0-2.92,2.52,6.09,6.09,0,0,0-1.11,3.57v13.62a1.35,1.35,0,0,1-.43,1,1.38,1.38,0,0,1-1,.44,1.35,1.35,0,0,1-1.06-.44,1.43,1.43,0,0,1-.38-1V675.49a1.41,1.41,0,0,1,.41-1,1.34,1.34,0,0,1,1-.43,1.37,1.37,0,0,1,1,.43,1.44,1.44,0,0,1,.4,1v15.6l-1.1,1.69a6.35,6.35,0,0,1,.94-2.92,10.1,10.1,0,0,1,2.19-2.55,10.86,10.86,0,0,1,3-1.78A9,9,0,0,1,358.54,684.88Z"/>
    <path class="cls-1" d="M379.22,708.23a1.35,1.35,0,0,1-.43,1,1.38,1.38,0,0,1-1,.44,1.34,1.34,0,0,1-1-.44,1.37,1.37,0,0,1-.41-1V686.08a1.41,1.41,0,0,1,.41-1,1.34,1.34,0,0,1,1-.43,1.37,1.37,0,0,1,1,.43,1.44,1.44,0,0,1,.4,1Z"/>
    <path class="cls-1" d="M399.36,684.49a16.46,16.46,0,0,1,4.23.51,9.16,9.16,0,0,1,3.11,1.37,2.4,2.4,0,0,1,1.18,1.88,1.52,1.52,0,0,1-.36.94,1.09,1.09,0,0,1-.89.46,1.56,1.56,0,0,1-1-.29,6.35,6.35,0,0,1-.7-.68,3.41,3.41,0,0,0-1-.72,8.86,8.86,0,0,0-1.8-.53,13.24,13.24,0,0,0-2.63-.24,9,9,0,0,0-4.86,1.35,9.62,9.62,0,0,0-3.42,3.63A10.59,10.59,0,0,0,390,697.3a11.21,11.21,0,0,0,1.18,5.2,8.92,8.92,0,0,0,3.32,3.64,9.22,9.22,0,0,0,4.94,1.32,10.84,10.84,0,0,0,3-.33,9.08,9.08,0,0,0,1.8-.77,4.7,4.7,0,0,0,1.37-1,1.34,1.34,0,0,1,1.09-.51,1.18,1.18,0,0,1,.91.36,1.33,1.33,0,0,1,.34,1,2.49,2.49,0,0,1-1.13,1.7,10,10,0,0,1-3.11,1.64,13.59,13.59,0,0,1-4.57.7,11.66,11.66,0,0,1-6.29-1.69,11.53,11.53,0,0,1-4.23-4.6,14,14,0,0,1-1.52-6.57,13.34,13.34,0,0,1,1.54-6.4,12.3,12.3,0,0,1,4.29-4.65A11.69,11.69,0,0,1,399.36,684.49Z"/>
    <path class="cls-1" d="M414.54,705.78a1.86,1.86,0,0,1-.36-1.13,1.06,1.06,0,0,1,.6-.9,1.11,1.11,0,0,1,.89-.28,1.5,1.5,0,0,1,.94.48,10.4,10.4,0,0,0,3.15,2.72,8.93,8.93,0,0,0,4.41,1,8.22,8.22,0,0,0,2.67-.45,5.3,5.3,0,0,0,2.19-1.4,3.73,3.73,0,0,0,0-4.79,6.08,6.08,0,0,0-2.24-1.45,26.11,26.11,0,0,0-2.91-.91q-1.63-.44-3.18-1a11.21,11.21,0,0,1-2.72-1.39,6.74,6.74,0,0,1-1.9-2.05,5.62,5.62,0,0,1-.72-2.94,5.92,5.92,0,0,1,1.1-3.56,7.45,7.45,0,0,1,3-2.41,10.27,10.27,0,0,1,4.31-.87,11.82,11.82,0,0,1,2.6.32,11,11,0,0,1,2.75,1,8.17,8.17,0,0,1,2.4,2,1.37,1.37,0,0,1,.44,1,1.31,1.31,0,0,1-.48,1,1.48,1.48,0,0,1-.89.29,1.11,1.11,0,0,1-.85-.38,7.56,7.56,0,0,0-2.74-2,8.66,8.66,0,0,0-3.42-.67,7.51,7.51,0,0,0-2.62.45,5.17,5.17,0,0,0-2.05,1.38,3.44,3.44,0,0,0-.82,2.4,3.32,3.32,0,0,0,1,2.27,7,7,0,0,0,2.36,1.44,28,28,0,0,0,3.3,1.06,27.56,27.56,0,0,1,3,.92,10.21,10.21,0,0,1,2.5,1.32,6,6,0,0,1,1.73,2,6.24,6.24,0,0,1,.65,3,5.84,5.84,0,0,1-1.18,3.66,7.34,7.34,0,0,1-3.15,2.36,11.28,11.28,0,0,1-4.38.82,13.06,13.06,0,0,1-5-1A10.9,10.9,0,0,1,414.54,705.78Z"/>
    <path class="cls-1" d="M476.46,674.05a1.37,1.37,0,0,1,1,.41,1.36,1.36,0,0,1,.41,1v32.74a1.35,1.35,0,0,1-.43,1,1.4,1.4,0,0,1-1,.44,1.35,1.35,0,0,1-1.06-.44,1.44,1.44,0,0,1-.39-1V702.5l.82-.67a6.41,6.41,0,0,1-.72,2.82,9.46,9.46,0,0,1-2.05,2.72,10.68,10.68,0,0,1-3.08,2,9.49,9.49,0,0,1-3.83.77,10.25,10.25,0,0,1-5.75-1.69,11.8,11.8,0,0,1-4.07-4.57,15.3,15.3,0,0,1,0-13.17,11.62,11.62,0,0,1,4.05-4.57,10.26,10.26,0,0,1,5.73-1.67,10.08,10.08,0,0,1,3.8.73,10.42,10.42,0,0,1,3.15,2,9.55,9.55,0,0,1,2.17,2.87,7.45,7.45,0,0,1,.79,3.34l-1-.72V675.49a1.47,1.47,0,0,1,.39-1A1.34,1.34,0,0,1,476.46,674.05Zm-10,33.41a8,8,0,0,0,4.53-1.32,9,9,0,0,0,3.1-3.61,11.59,11.59,0,0,0,1.14-5.23,11.42,11.42,0,0,0-1.14-5.17,9,9,0,0,0-3.1-3.61,8.33,8.33,0,0,0-9,0,9,9,0,0,0-3.13,3.61,11.55,11.55,0,0,0-1.13,5.17,11.71,11.71,0,0,0,1.13,5.2,9.07,9.07,0,0,0,3.13,3.64A8,8,0,0,0,466.44,707.46Z"/>
    <path class="cls-1" d="M498.45,710.16a13.15,13.15,0,0,1-6.55-1.59,11.37,11.37,0,0,1-4.43-4.43,13.37,13.37,0,0,1-1.59-6.64,14.22,14.22,0,0,1,1.61-7,11.92,11.92,0,0,1,4.19-4.45,10.4,10.4,0,0,1,5.47-1.57,11.59,11.59,0,0,1,4.11.75,10.29,10.29,0,0,1,3.54,2.22,11.52,11.52,0,0,1,2.51,3.58,12.31,12.31,0,0,1,1,4.91,1.31,1.31,0,0,1-.44,1,1.41,1.41,0,0,1-1,.41h-19.3l-.58-2.6h19l-.63.58v-1a7.39,7.39,0,0,0-1.49-3.86,8.1,8.1,0,0,0-3-2.4,8.55,8.55,0,0,0-3.68-.82,8.15,8.15,0,0,0-3,.58,7.63,7.63,0,0,0-2.75,1.8,9.36,9.36,0,0,0-2,3.13,12,12,0,0,0-.77,4.5,11.34,11.34,0,0,0,1.16,5.15,8.93,8.93,0,0,0,3.32,3.67,9.85,9.85,0,0,0,5.25,1.34,8.79,8.79,0,0,0,3-.48,8.65,8.65,0,0,0,2.39-1.27,9.72,9.72,0,0,0,1.71-1.67,1.61,1.61,0,0,1,1-.43,1.17,1.17,0,0,1,.89.39,1.21,1.21,0,0,1,.36.86,1.32,1.32,0,0,1-.48,1,12.89,12.89,0,0,1-3.76,3A10.27,10.27,0,0,1,498.45,710.16Z"/>
    <path class="cls-1" d="M514.85,705.78a1.86,1.86,0,0,1-.36-1.13,1.06,1.06,0,0,1,.6-.9,1.11,1.11,0,0,1,.89-.28,1.5,1.5,0,0,1,.94.48,10.28,10.28,0,0,0,3.15,2.72,8.93,8.93,0,0,0,4.41,1,8.22,8.22,0,0,0,2.67-.45,5.3,5.3,0,0,0,2.19-1.4,3.73,3.73,0,0,0,0-4.79,6.08,6.08,0,0,0-2.24-1.45,26.11,26.11,0,0,0-2.91-.91q-1.63-.44-3.18-1a11.21,11.21,0,0,1-2.72-1.39,6.74,6.74,0,0,1-1.9-2.05,5.62,5.62,0,0,1-.72-2.94,5.92,5.92,0,0,1,1.1-3.56,7.45,7.45,0,0,1,3-2.41,10.27,10.27,0,0,1,4.31-.87,11.89,11.89,0,0,1,2.6.32,11,11,0,0,1,2.75,1,8.17,8.17,0,0,1,2.4,2,1.37,1.37,0,0,1,.44,1,1.31,1.31,0,0,1-.48,1,1.48,1.48,0,0,1-.89.29,1.11,1.11,0,0,1-.85-.38,7.56,7.56,0,0,0-2.74-2,8.66,8.66,0,0,0-3.42-.67,7.51,7.51,0,0,0-2.62.45,5.17,5.17,0,0,0-2,1.38,3.44,3.44,0,0,0-.82,2.4,3.32,3.32,0,0,0,1,2.27,7,7,0,0,0,2.36,1.44,28.37,28.37,0,0,0,3.29,1.06,27.05,27.05,0,0,1,3,.92,10.21,10.21,0,0,1,2.5,1.32,6,6,0,0,1,1.73,2,6.24,6.24,0,0,1,.65,3,5.84,5.84,0,0,1-1.18,3.66,7.34,7.34,0,0,1-3.15,2.36,11.28,11.28,0,0,1-4.38.82,13.06,13.06,0,0,1-5-1A10.9,10.9,0,0,1,514.85,705.78Z"/>
    <path class="cls-1" d="M543.44,708.23a1.49,1.49,0,0,1-1.45,1.45,1.36,1.36,0,0,1-1-.44,1.41,1.41,0,0,1-.41-1V686.08a1.45,1.45,0,0,1,.41-1,1.46,1.46,0,0,1,2.07,0,1.45,1.45,0,0,1,.41,1Z"/>
    <path class="cls-1" d="M563,684.49a10.33,10.33,0,0,1,4,.75,11.47,11.47,0,0,1,3.2,1.93,9.89,9.89,0,0,1,2.15,2.5,5.07,5.07,0,0,1,.76,2.53l-.76-1.16v-4.47a1.47,1.47,0,0,1,.4-1.06,1.38,1.38,0,0,1,1-.44,1.34,1.34,0,0,1,1,.44,1.44,1.44,0,0,1,.41,1.06v20.84a12.4,12.4,0,0,1-1.59,6.5,10.28,10.28,0,0,1-4.3,4,13.52,13.52,0,0,1-6.19,1.38,15.44,15.44,0,0,1-3.54-.44,13.56,13.56,0,0,1-3.18-1.1c-.88-.45-1.39-.92-1.52-1.4a1.26,1.26,0,0,1-.31-.84.91.91,0,0,1,.41-.7.89.89,0,0,1,1-.07c.37.17.9.41,1.61.7l1.28.43a14.42,14.42,0,0,0,2,.5,11.91,11.91,0,0,0,2.34.22,8.44,8.44,0,0,0,9.15-9V703l.52.14a8,8,0,0,1-1.44,3,9.62,9.62,0,0,1-2.36,2.19,10.44,10.44,0,0,1-2.89,1.35,10.6,10.6,0,0,1-3.08.46,11,11,0,0,1-6-1.69,11.9,11.9,0,0,1-4.21-4.57,14.85,14.85,0,0,1,0-13.17,11.79,11.79,0,0,1,4.19-4.57A11,11,0,0,1,563,684.49Zm.29,2.7a8.58,8.58,0,0,0-4.7,1.33,9.14,9.14,0,0,0-3.27,3.61,11.06,11.06,0,0,0-1.18,5.17,11.21,11.21,0,0,0,1.18,5.2,9.16,9.16,0,0,0,3.27,3.64,9.12,9.12,0,0,0,9.42,0,9.2,9.2,0,0,0,3.27-3.58,12.1,12.1,0,0,0,0-10.55,9,9,0,0,0-3.27-3.56A8.81,8.81,0,0,0,563.28,687.19Z"/>
    <path class="cls-1" d="M596.19,684.49a9,9,0,0,1,5.08,1.28,7.22,7.22,0,0,1,2.75,3.47,13.4,13.4,0,0,1,.84,4.84v14.15a1.49,1.49,0,0,1-1.45,1.45,1.35,1.35,0,0,1-1.06-.44,1.47,1.47,0,0,1-.38-1v-14a9.45,9.45,0,0,0-.63-3.51,5.52,5.52,0,0,0-2-2.56,6.59,6.59,0,0,0-3.74-1,8.41,8.41,0,0,0-3.92,1,8.64,8.64,0,0,0-3,2.56,5.84,5.84,0,0,0-1.16,3.51v14a1.35,1.35,0,0,1-.43,1,1.38,1.38,0,0,1-1,.44,1.35,1.35,0,0,1-1.06-.44,1.43,1.43,0,0,1-.38-1V686.66a1.41,1.41,0,0,1,.41-1,1.34,1.34,0,0,1,1-.43,1.37,1.37,0,0,1,1,.43,1.44,1.44,0,0,1,.4,1v4.05l-1.1,1.73a6.2,6.2,0,0,1,1-3,10.4,10.4,0,0,1,2.29-2.55,11,11,0,0,1,3.11-1.78A9.5,9.5,0,0,1,596.19,684.49Z"/>
    <circle class="cls-1" cx="377.78" cy="679.39" r="1.97"/>
    <circle class="cls-1" cx="541.97" cy="679.39" r="1.97"/>
  </g>
</svg>
